<svg width="71" height="70" viewBox="0 0 71 70" fill="none" xmlns="http://www.w3.org/2000/svg">
<path d="M50.3789 21.875L54.5351 12.4688L42.9414 16.6249L36.1601 6.5625L29.1602 16.6249L17.7852 12.4688L21.9414 21.875" stroke="#447704" stroke-width="2.5" stroke-linecap="round" stroke-linejoin="round"/>
<path d="M35.9414 35.875V38.9374" stroke="#447704" stroke-width="2.5" stroke-linecap="round" stroke-linejoin="round"/>
<path d="M24.7852 33.25V36.5312" stroke="#447704" stroke-width="2.5" stroke-linecap="round" stroke-linejoin="round"/>
<path d="M47.0977 33.25V36.5312" stroke="#447704" stroke-width="2.5" stroke-linecap="round" stroke-linejoin="round"/>
<path d="M41.6289 44.625V47.9062" stroke="#447704" stroke-width="2.5" stroke-linecap="round" stroke-linejoin="round"/>
<path d="M30.0352 44.625V47.9062" stroke="#447704" stroke-width="2.5" stroke-linecap="round" stroke-linejoin="round"/>
<path d="M30.9096 62.1251C31.5456 62.903 32.3465 63.5299 33.2545 63.9603C34.1624 64.3908 35.1547 64.614 36.1595 64.614C37.1644 64.614 38.1567 64.3908 39.0646 63.9603C39.9726 63.5299 40.7735 62.903 41.4095 62.1251L54.0971 47.6875C57.0446 44.2852 58.6745 39.9389 58.6908 35.4375C58.7198 33.6851 58.4033 31.9442 57.7593 30.3142C57.1153 28.6841 56.1566 27.1969 54.9377 25.9374C53.7189 24.678 52.2639 23.671 50.6559 22.974C49.0478 22.2769 47.3182 21.9035 45.5658 21.875H26.7533C25.0009 21.9035 23.2713 22.2769 21.6632 22.974C20.0552 23.671 18.6002 24.678 17.3814 25.9374C16.1626 27.1969 15.2038 28.6841 14.5599 30.3142C13.9159 31.9442 13.5994 33.6851 13.6283 35.4375C13.5408 39.9574 15.1842 44.3397 18.2221 47.6875L30.9096 62.1251Z" stroke="#447704" stroke-width="2.5" stroke-linecap="round" stroke-linejoin="round"/>
</svg>
