<svg width="71" height="70" viewBox="0 0 71 70" fill="none" xmlns="http://www.w3.org/2000/svg">
<path d="M58.0313 4.375V44.1875H43.375V19.0313C43.375 15.1442 44.9191 11.4163 47.6677 8.66769C50.4163 5.91911 54.1442 4.375 58.0313 4.375Z" stroke="#447704" stroke-width="2.5" stroke-linecap="round" stroke-linejoin="round"/>
<path d="M49.5 43.9688H58.0313V62.3437C58.0313 63.446 57.5934 64.5032 56.8139 65.2827C56.0345 66.0621 54.9773 66.5 53.875 66.5H53.6563C52.554 66.5 51.4968 66.0621 50.7174 65.2827C49.9379 64.5032 49.5 63.446 49.5 62.3437V43.9688Z" stroke="#447704" stroke-width="2.5" stroke-linecap="round" stroke-linejoin="round"/>
<path d="M21.5 66.5C20.1656 66.5 18.8859 65.9699 17.9423 65.0264C16.9988 64.0828 16.4688 62.8031 16.4688 61.4688L18.6562 34.125H24.5625L26.75 61.4688C26.7506 62.1483 26.6136 62.8209 26.3472 63.446C26.0808 64.0712 25.6905 64.6358 25.1999 65.106C24.7092 65.5762 24.1285 65.9421 23.4926 66.1817C22.8567 66.4213 22.1789 66.5295 21.5 66.5Z" stroke="#447704" stroke-width="2.5" stroke-linecap="round" stroke-linejoin="round"/>
<path d="M31.3438 24.2812C30.989 26.6674 29.7889 28.8467 27.962 30.4221C26.1351 31.9975 23.803 32.8642 21.3907 32.8642C18.9783 32.8642 16.6462 31.9975 14.8193 30.4221C12.9924 28.8467 11.7922 26.6674 11.4375 24.2812H31.3438Z" stroke="#447704" stroke-width="2.5" stroke-linecap="round" stroke-linejoin="round"/>
<path d="M11.4375 6.125V24.2813" stroke="#447704" stroke-width="2.5" stroke-linecap="round" stroke-linejoin="round"/>
<path d="M21.2812 6.125V23.8438" stroke="#447704" stroke-width="2.5" stroke-linecap="round" stroke-linejoin="round"/>
<path d="M31.3438 6.125V24.2813" stroke="#447704" stroke-width="2.5" stroke-linecap="round" stroke-linejoin="round"/>
</svg>
