<svg width="70" height="70" viewBox="0 0 70 70" fill="none" xmlns="http://www.w3.org/2000/svg">
<path d="M46.375 16.6249C46.3171 22.6182 48.0707 28.4891 51.4062 33.4687C53.7035 36.9789 54.9205 41.0861 54.9063 45.2813C54.3763 50.4532 51.9468 55.2445 48.0877 58.7283C44.2287 62.2121 39.2146 64.1407 34.0156 64.1407C28.8166 64.1407 23.8025 62.2121 19.9435 58.7283C16.0845 55.2445 13.6549 50.4532 13.125 45.2813C13.1883 41.0657 14.4807 36.9603 16.8437 33.4687C20.1792 28.4891 21.9329 22.6182 21.875 16.6249C21.875 13.376 23.1656 10.2603 25.4629 7.96293C27.7603 5.66561 30.8761 4.375 34.125 4.375C37.3739 4.375 40.4897 5.66561 42.787 7.96293C45.0843 10.2603 46.375 13.376 46.375 16.6249Z" stroke="#447704" stroke-width="2.5" stroke-miterlimit="10"/>
<path d="M34.1251 54.9062C38.8367 54.9062 42.6563 51.0867 42.6563 46.3751C42.6563 41.6634 38.8367 37.8438 34.1251 37.8438C29.4134 37.8438 25.5938 41.6634 25.5938 46.3751C25.5938 51.0867 29.4134 54.9062 34.1251 54.9062Z" stroke="#447704" stroke-width="2.5" stroke-miterlimit="10"/>
</svg>
