<svg width="22" height="21" viewBox="0 0 22 21" fill="none" xmlns="http://www.w3.org/2000/svg">
<path d="M1.40039 -0.00683594C0.848106 -0.00683594 0.400391 0.440879 0.400391 0.993164C0.400391 1.54545 0.848106 1.99316 1.40039 1.99316V-0.00683594ZM3.69293 0.993164L4.65815 0.731749C4.5401 0.295846 4.14453 -0.00683594 3.69293 -0.00683594V0.993164ZM7.4183 14.7484L6.45307 15.0098C6.58334 15.4908 7.04786 15.8025 7.54234 15.7407L7.4183 14.7484ZM18.881 13.3156L19.005 14.3078C19.4297 14.2547 19.7735 13.9373 19.8602 13.5182L18.881 13.3156ZM20.6004 5.00511L21.5796 5.20771C21.6406 4.9132 21.5657 4.6069 21.3758 4.37368C21.1859 4.14047 20.9011 4.00511 20.6004 4.00511V5.00511ZM4.77949 5.00511L3.81427 5.26652L4.77949 5.00511ZM1.40039 1.99316H3.69293V-0.00683594H1.40039V1.99316ZM7.54234 15.7407L19.005 14.3078L18.7569 12.3233L7.29427 13.7561L7.54234 15.7407ZM19.8602 13.5182L21.5796 5.20771L19.6211 4.8025L17.9017 13.1129L19.8602 13.5182ZM2.7277 1.25458L3.81427 5.26652L5.74472 4.74369L4.65815 0.731749L2.7277 1.25458ZM3.81427 5.26652L6.45307 15.0098L8.38353 14.487L5.74472 4.74369L3.81427 5.26652ZM20.6004 4.00511H4.77949V6.00511H20.6004V4.00511ZM10.0004 18.5004C10.0004 18.7766 9.77653 19.0004 9.50039 19.0004V21.0004C10.8811 21.0004 12.0004 19.8811 12.0004 18.5004H10.0004ZM9.50039 19.0004C9.22425 19.0004 9.00039 18.7766 9.00039 18.5004H7.00039C7.00039 19.8811 8.11968 21.0004 9.50039 21.0004V19.0004ZM9.00039 18.5004C9.00039 18.2243 9.22425 18.0004 9.50039 18.0004V16.0004C8.11968 16.0004 7.00039 17.1197 7.00039 18.5004H9.00039ZM9.50039 18.0004C9.77653 18.0004 10.0004 18.2243 10.0004 18.5004H12.0004C12.0004 17.1197 10.8811 16.0004 9.50039 16.0004V18.0004ZM18.0004 18.5004C18.0004 18.7766 17.7765 19.0004 17.5004 19.0004V21.0004C18.8811 21.0004 20.0004 19.8811 20.0004 18.5004H18.0004ZM17.5004 19.0004C17.2242 19.0004 17.0004 18.7766 17.0004 18.5004H15.0004C15.0004 19.8811 16.1197 21.0004 17.5004 21.0004V19.0004ZM17.0004 18.5004C17.0004 18.2243 17.2242 18.0004 17.5004 18.0004V16.0004C16.1197 16.0004 15.0004 17.1197 15.0004 18.5004H17.0004ZM17.5004 18.0004C17.7765 18.0004 18.0004 18.2243 18.0004 18.5004H20.0004C20.0004 17.1197 18.8811 16.0004 17.5004 16.0004V18.0004Z" fill="black"/>
</svg>
