<svg width="24" height="24" viewBox="0 0 24 24" fill="none" xmlns="http://www.w3.org/2000/svg">
<path fill-rule="evenodd" clip-rule="evenodd" d="M3.80577 6.20659C4.7059 5.30673 5.92658 4.80122 7.19936 4.80122C8.47215 4.80122 9.69283 5.30673 10.593 6.20659L11.9994 7.61179L13.4058 6.20659C13.8485 5.74815 14.3782 5.38247 14.9638 5.13091C15.5494 4.87934 16.1793 4.74693 16.8166 4.74139C17.454 4.73585 18.086 4.8573 18.6759 5.09865C19.2658 5.34 19.8018 5.69641 20.2525 6.1471C20.7031 6.59778 21.0596 7.13371 21.3009 7.72361C21.5423 8.31352 21.6637 8.94558 21.6582 9.58292C21.6526 10.2203 21.5202 10.8501 21.2686 11.4357C21.0171 12.0214 20.6514 12.551 20.193 12.9938L11.9994 21.1886L3.80577 12.9938C2.9059 12.0937 2.40039 10.873 2.40039 9.60019C2.40039 8.32741 2.9059 7.10673 3.80577 6.20659V6.20659Z" stroke="black" stroke-width="2" stroke-linejoin="round"/>
</svg>
